<svg width="19" height="19" viewBox="0 0 19 19" fill="none" xmlns="http://www.w3.org/2000/svg">
<path fill-rule="evenodd" clip-rule="evenodd" d="M9.49986 16.7743L10.0708 16.131C10.7186 15.3897 11.3015 14.6843 11.8197 14.0148L12.2476 13.4502C14.0348 11.0429 14.9284 9.13297 14.9284 7.72033C14.9284 4.70566 12.4982 2.2619 9.49986 2.2619C6.50148 2.2619 4.07129 4.70566 4.07129 7.72033C4.07129 9.13297 4.96489 11.0432 6.7521 13.4511L7.18005 14.0157C7.91974 14.9632 8.69351 15.8828 9.49986 16.7743Z" stroke="white" stroke-linecap="round" stroke-linejoin="round"/>
<path d="M9.4997 9.9524C10.7489 9.9524 11.7616 8.93971 11.7616 7.69049C11.7616 6.44128 10.7489 5.42859 9.4997 5.42859C8.25048 5.42859 7.23779 6.44128 7.23779 7.69049C7.23779 8.93971 8.25048 9.9524 9.4997 9.9524Z" stroke="white" stroke-linecap="round" stroke-linejoin="round"/>
</svg>
