<svg width="18" height="18" viewBox="0 0 18 18" fill="none" xmlns="http://www.w3.org/2000/svg">
<path d="M9 2.25H3.75C3.35218 2.25 2.97064 2.40804 2.68934 2.68934C2.40804 2.97064 2.25 3.35218 2.25 3.75V14.25C2.25 14.6478 2.40804 15.0294 2.68934 15.3107C2.97064 15.592 3.35218 15.75 3.75 15.75H14.25C14.6478 15.75 15.0294 15.592 15.3107 15.3107C15.592 15.0294 15.75 14.6478 15.75 14.25V9" stroke="white" stroke-width="1.5" stroke-linecap="round" stroke-linejoin="round"/>
<path d="M13.7813 1.9688C14.0797 1.67043 14.4844 1.50281 14.9063 1.50281C15.3283 1.50281 15.733 1.67043 16.0313 1.9688C16.3297 2.26717 16.4973 2.67184 16.4973 3.0938C16.4973 3.51575 16.3297 3.92043 16.0313 4.2188L9.27157 10.9793C9.09348 11.1572 8.87347 11.2875 8.63182 11.358L6.47707 11.988C6.41253 12.0069 6.34412 12.008 6.279 11.9913C6.21388 11.9746 6.15444 11.9408 6.10691 11.8932C6.05937 11.8457 6.02549 11.7862 6.0088 11.7211C5.99212 11.656 5.99325 11.5876 6.01207 11.523L6.64207 9.3683C6.71297 9.12684 6.84347 8.90709 7.02157 8.7293L13.7813 1.9688Z" stroke="white" stroke-width="1.5" stroke-linecap="round" stroke-linejoin="round"/>
</svg>
